<svg xmlns="http://www.w3.org/2000/svg" xmlns:xlink="http://www.w3.org/1999/xlink" width="148" height="148"><defs><path id="c" d="M.224 7.008h33.88V.072H.224v6.936"/><path id="e" d="M.224 7.131h33.88V.192H.224v6.94"/><path id="g" d="M.224 7.005h33.88V.065H.224v6.94"/><path id="i" d="M.224 7.121h33.88V.183H.224V7.12"/><path id="k" d="M.155 7.008H34.04V.072H.155v6.936"/><path id="m" d="M.155 7.129H34.04V.189H.155v6.94"/><path id="o" d="M.03 7.131h33.882V.195H.03V7.13"/><path id="q" d="M.03 7.008h33.882V.067H.03v6.94"/><path id="s" d="M.03 7.129h33.882V.189H.03v6.94"/><path id="u" d="M33.978 7.008H.096V.069h33.882v6.939"/><path id="w" d="M33.978 7.062H.096V.123h33.882v6.94"/><path id="y" d="M33.978 7.116H.096V.178h33.882v6.938"/><path id="A" d="M33.978 7.17H.096V.233h33.882V7.17"/><path id="C" d="M33.978 6.978H.096V.04h33.882v6.94"/><filter id="a" width="104.1%" height="111%" x="-2.1%" y="-4.5%" filterUnits="objectBoundingBox"><feOffset dy="2" in="SourceAlpha" result="shadowOffsetOuter1"/><feGaussianBlur in="shadowOffsetOuter1" result="shadowBlurOuter1" stdDeviation="3.5"/><feColorMatrix in="shadowBlurOuter1" values="0 0 0 0 0.0705882353 0 0 0 0 0.0705882353 0 0 0 0 0.0705882353 0 0 0 0.2 0"/></filter><rect id="b" width="555.695" height="209.204" rx="2.28"/></defs><g fill="none" fill-rule="evenodd"><path fill="#FFF" d="M-256-598h1600V755H-256z"/><g transform="translate(-25 -31)"><use fill="#000" filter="url(#a)" xlink:href="#b"/><use fill="#FFF" xlink:href="#b"/></g><path fill="#004481" d="M-25-31h197v209H-25z"/><path fill="#F8CD51" fill-rule="nonzero" d="M77.924 147.854h33.88v-6.936h-33.88v6.936"/><g transform="translate(77.7 140.847)"><mask id="d" fill="#fff"><use xlink:href="#c"/></mask><path fill="#CCA943" fill-rule="nonzero" d="M34.104.072H.224v6.936h33.88V.072" mask="url(#d)"/></g><path fill="#F8CD51" fill-rule="nonzero" d="M77.924 138.604h33.88v-6.938h-33.88v6.938"/><g transform="translate(77.7 131.473)"><mask id="f" fill="#fff"><use xlink:href="#e"/></mask><path fill="#CCA943" fill-rule="nonzero" d="M34.104.192H4.454L.225 4.43v2.701h33.88V.192" mask="url(#f)"/></g><path fill="#F8CD51" fill-rule="nonzero" d="M77.924 129.352h33.88v-6.941h-33.88v6.941"/><g transform="translate(77.7 122.347)"><mask id="h" fill="#fff"><use xlink:href="#g"/></mask><path fill="#CCA943" fill-rule="nonzero" d="M34.104.064H13.697l-6.93 6.941h27.337V.065" mask="url(#h)"/></g><path fill="#F8CD51" fill-rule="nonzero" d="M77.924 120.095h33.88v-6.94h-33.88v6.94"/><g transform="translate(77.7 112.973)"><mask id="j" fill="#fff"><use xlink:href="#i"/></mask><path fill="#CCA943" fill-rule="nonzero" d="M34.104.183H22.817L15.885 7.12h18.22V.183" mask="url(#j)"/></g><path fill="#F8CD51" fill-rule="nonzero" d="M114.115 147.854H148v-6.936h-33.885v6.936"/><g transform="translate(113.96 140.847)"><mask id="l" fill="#fff"><use xlink:href="#k"/></mask><path fill="#CCA943" fill-rule="nonzero" d="M34.04.072h-18.1L9.01 7.008h25.03V.072" mask="url(#l)"/></g><path fill="#F8CD51" fill-rule="nonzero" d="M114.115 138.602H148v-6.939h-33.885v6.939"/><g transform="translate(113.96 131.473)"><mask id="n" fill="#fff"><use xlink:href="#m"/></mask><path fill="#CCA943" fill-rule="nonzero" d="M34.04.19h-8.86l-6.927 6.939H34.04V.189" mask="url(#n)"/></g><path fill="#F8CD51" fill-rule="nonzero" d="M1.016 147.978h33.882v-6.936H1.016v6.936"/><g transform="translate(.987 140.847)"><mask id="p" fill="#fff"><use xlink:href="#o"/></mask><path fill="#CCA943" fill-rule="nonzero" d="M33.912.195h-18.46L8.524 7.13h25.387V.195" mask="url(#p)"/></g><path fill="#F8CD51" fill-rule="nonzero" d="M1.016 138.728h33.882v-6.941H1.016v6.94"/><g transform="translate(.987 131.72)"><mask id="r" fill="#fff"><use xlink:href="#q"/></mask><path fill="#CCA943" fill-rule="nonzero" d="M33.912.067h-8.158l-6.93 6.94h15.088V.068" mask="url(#r)"/></g><path fill="#F8CD51" fill-rule="nonzero" d="M1.016 129.475h33.882v-6.938H1.016v6.938"/><g transform="translate(.987 122.347)"><mask id="t" fill="#fff"><use xlink:href="#s"/></mask><path fill="#CCA943" fill-rule="nonzero" d="M33.912 1.273l-5.849 5.856h5.849V1.273" mask="url(#t)"/></g><path fill="#F8CD51" fill-rule="nonzero" d="M73.445 147.854H39.563v-6.938h33.882v6.938"/><g transform="translate(39.467 140.847)"><mask id="v" fill="#fff"><use xlink:href="#u"/></mask><path fill="#CCA943" fill-rule="nonzero" d="M33.978.07H.096v6.938h33.882V.069" mask="url(#v)"/></g><path fill="#F8CD51" fill-rule="nonzero" d="M73.445 138.535H39.563v-6.938h33.882v6.938"/><g transform="translate(39.467 131.473)"><mask id="x" fill="#fff"><use xlink:href="#w"/></mask><path fill="#CCA943" fill-rule="nonzero" d="M33.978.123H8.148l-6.932 6.94h32.762V.122" mask="url(#x)"/></g><path fill="#F8CD51" fill-rule="nonzero" d="M73.445 129.216H39.563v-6.938h33.882v6.938"/><g transform="translate(39.467 122.1)"><mask id="z" fill="#fff"><use xlink:href="#y"/></mask><path fill="#CCA943" fill-rule="nonzero" d="M33.978.178H17.452l-6.93 6.938h23.456V.178" mask="url(#z)"/></g><path fill="#F8CD51" fill-rule="nonzero" d="M73.445 119.897H39.563v-6.938h33.882v6.938"/><g transform="translate(39.467 112.727)"><mask id="B" fill="#fff"><use xlink:href="#A"/></mask><path fill="#CCA943" fill-rule="nonzero" d="M33.978.232h-7.217L19.83 7.17h14.148V.23" mask="url(#B)"/></g><path fill="#F8CD51" fill-rule="nonzero" d="M73.445 110.578H39.563v-6.939h33.882v6.94"/><g transform="translate(39.467 103.6)"><mask id="D" fill="#fff"><use xlink:href="#C"/></mask><path fill="#CCA943" fill-rule="nonzero" d="M33.978 2.129l-4.842 4.85h4.842v-4.85" mask="url(#D)"/></g><path fill="#F8CD51" fill-rule="nonzero" d="M39.563 94.318h33.88v6.939h-33.88zm0-9.319h33.88v6.941h-33.88zm0-9.322h33.88v6.942h-33.88zm0-9.319h33.88V73.3h-33.88z"/><path fill="#48AE64" fill-rule="nonzero" d="M95.386 110.578V57.967a.863.863 0 10-1.727 0v52.611a.863.863 0 101.727 0M94.59 27s-16.222 13.263-.057 28.628L94.589 27z"/><path fill="#88CA9A" fill-rule="nonzero" d="M94.59 27s16.05 13.234-.114 28.596L94.589 27z"/><path fill="#48AE64" fill-rule="nonzero" d="M121.471 57.745s-20.18-5.61-23.382 16.477l23.382-16.477z"/><path fill="#88CA9A" fill-rule="nonzero" d="M121.471 57.745s-1.53 20.762-23.389 16.413l23.389-16.413z"/><path fill="#48AE64" fill-rule="nonzero" d="M77.414 68.29s-.02 14.866 15.656 12.89L77.414 68.29z"/><path fill="#88CA9A" fill-rule="nonzero" d="M77.414 68.29s14.46-2.872 15.611 12.908L77.414 68.29z"/><path fill="#48AE64" fill-rule="nonzero" d="M58.127 64.084V30.976a.863.863 0 00-1.727 0v33.108a.863.863 0 001.727 0M57.33.02s-16.22 13.265-.056 28.628L57.33.02z"/><path fill="#88CA9A" fill-rule="nonzero" d="M57.33.02s16.05 13.236-.103 28.593L57.33.02z"/><path fill="#48AE64" fill-rule="nonzero" d="M40.155 27.205s-.02 14.866 15.653 12.89l-15.653-12.89z"/><path fill="#88CA9A" fill-rule="nonzero" d="M40.155 27.205s14.457-2.871 15.611 12.905L40.155 27.205z"/><path fill="#48AE64" fill-rule="nonzero" d="M0 106.826s-.02 14.867 15.656 12.891L0 106.827z"/><path fill="#88CA9A" fill-rule="nonzero" d="M0 106.826s14.46-2.868 15.612 12.908L0 106.826z"/><path fill="#48AE64" fill-rule="nonzero" d="M15.952 119.734s21.549.03 18.685-22.752l-18.685 22.752z"/><path fill="#88CA9A" fill-rule="nonzero" d="M15.952 119.734s-4.161-21.013 18.71-22.693l-18.71 22.693z"/><path fill="#48AE64" fill-rule="nonzero" d="M127.882 129.67s21.549.027 18.685-22.752l-18.685 22.752z"/><path fill="#88CA9A" fill-rule="nonzero" d="M127.882 129.67s-4.161-21.016 18.71-22.693l-18.71 22.693z"/></g></svg>